<svg width="16" height="16" viewBox="0 0 16 16" fill="none" xmlns="http://www.w3.org/2000/svg">
<g id="star-empty">
<path id="Vector" d="M9.15177 2.29604L10.325 4.66184C10.485 4.99116 10.9116 5.30705 11.2716 5.36754L13.398 5.72375C14.7578 5.95227 15.0778 6.94698 14.0979 7.92825L12.4448 9.59505C12.1648 9.87732 12.0115 10.4217 12.0981 10.8116L12.5714 12.8749C12.9447 14.5081 12.0848 15.1399 10.6516 14.2863L8.65851 13.0967C8.29857 12.8817 7.70531 12.8817 7.33864 13.0967L5.34555 14.2863C3.91904 15.1399 3.05247 14.5014 3.42577 12.8749L3.89905 10.8116C3.9857 10.4217 3.83239 9.87732 3.55241 9.59505L1.89927 7.92825C0.92604 6.94698 1.23934 5.95227 2.59919 5.72375L4.72562 5.36754C5.07891 5.30705 5.50553 4.99116 5.66551 4.66184L6.83871 2.29604C7.47864 1.01232 8.51851 1.01232 9.15177 2.29604Z" fill="#5A2006" stroke="#5A2006" stroke-width="1.5" stroke-linecap="round" stroke-linejoin="round"/>
</g>
</svg>
